<svg xmlns="http://www.w3.org/2000/svg" width="1280" height="720" viewBox="0 0 1280 720" role="img" aria-labelledby="title desc">
  <title id="title">Senior Design Block Diagram Placeholder</title>
  <desc id="desc">Placeholder block diagram for spectrometer project deliverables</desc>
  <rect width="1280" height="720" fill="#f8fafc"/>
  <rect x="70" y="120" width="240" height="100" rx="12" fill="#dbeafe" stroke="#1d4ed8" stroke-width="3"/>
  <rect x="380" y="120" width="240" height="100" rx="12" fill="#dcfce7" stroke="#15803d" stroke-width="3"/>
  <rect x="690" y="120" width="240" height="100" rx="12" fill="#fee2e2" stroke="#b91c1c" stroke-width="3"/>
  <rect x="1000" y="120" width="210" height="100" rx="12" fill="#fef3c7" stroke="#b45309" stroke-width="3"/>

  <rect x="225" y="380" width="280" height="120" rx="12" fill="#e0f2fe" stroke="#0369a1" stroke-width="3"/>
  <rect x="760" y="380" width="300" height="120" rx="12" fill="#ede9fe" stroke="#6d28d9" stroke-width="3"/>

  <line x1="310" y1="170" x2="380" y2="170" stroke="#334155" stroke-width="4" marker-end="url(#arrow)"/>
  <line x1="620" y1="170" x2="690" y2="170" stroke="#334155" stroke-width="4" marker-end="url(#arrow)"/>
  <line x1="930" y1="170" x2="1000" y2="170" stroke="#334155" stroke-width="4" marker-end="url(#arrow)"/>
  <line x1="190" y1="220" x2="320" y2="380" stroke="#334155" stroke-width="4" marker-end="url(#arrow)"/>
  <line x1="1105" y1="220" x2="905" y2="380" stroke="#334155" stroke-width="4" marker-end="url(#arrow)"/>

  <text x="190" y="175" text-anchor="middle" font-size="28" font-family="Arial, sans-serif" fill="#0f172a">Optics</text>
  <text x="500" y="175" text-anchor="middle" font-size="28" font-family="Arial, sans-serif" fill="#0f172a">CCD Readout</text>
  <text x="810" y="175" text-anchor="middle" font-size="28" font-family="Arial, sans-serif" fill="#0f172a">STM32 Processing</text>
  <text x="1105" y="175" text-anchor="middle" font-size="28" font-family="Arial, sans-serif" fill="#0f172a">USB to PC</text>

  <text x="365" y="445" text-anchor="middle" font-size="26" font-family="Arial, sans-serif" fill="#0f172a">Spring Deliverables</text>
  <text x="365" y="480" text-anchor="middle" font-size="20" font-family="Arial, sans-serif" fill="#334155">Driver PCB, timing, bring-up</text>

  <text x="910" y="445" text-anchor="middle" font-size="26" font-family="Arial, sans-serif" fill="#0f172a">Fall Deliverables</text>
  <text x="910" y="480" text-anchor="middle" font-size="20" font-family="Arial, sans-serif" fill="#334155">Calibration, characterization, packaging</text>

  <text x="640" y="70" text-anchor="middle" font-size="34" font-family="Arial, sans-serif" fill="#0f172a">Spectro Project Block Diagram Placeholder</text>

  <defs>
    <marker id="arrow" markerWidth="10" markerHeight="10" refX="8" refY="3" orient="auto" markerUnits="strokeWidth">
      <path d="M0,0 L0,6 L9,3 z" fill="#334155"/>
    </marker>
  </defs>
</svg>